<svg xmlns="http://www.w3.org/2000/svg" viewBox="0 0 64 64"><defs><linearGradient id="g" x1="0" y1="0" x2="1" y2="1"><stop offset="0" stop-color="#039855"/><stop offset="1" stop-color="#05603a"/></linearGradient></defs><rect width="64" height="64" rx="14" fill="url(#g)"/><g transform="translate(12 11) scale(1.6667)" fill="none" stroke="#fff" stroke-width="1.8" stroke-linecap="round" stroke-linejoin="round"><path d="M7 8.5a2.5 2.5 0 0 1 1.8-3.6 2.6 2.6 0 0 1 3.2-1.9 2.6 2.6 0 0 1 3.2 1.9A2.5 2.5 0 0 1 17 8.5"/><path d="M7.2 9 3 10.2c.5 1.4 1.9 2.1 3.4 1.7"/><path d="M16.8 9 21 10.2c-.5 1.4-1.9 2.1-3.4 1.7"/><path d="M7 8.5c0 5.5 2.2 12.5 5 12.5s5-7 5-12.5"/><path d="M10 12h.01"/><path d="M14 12h.01"/><path d="M11 18.5h2"/></g></svg>
